# xmcd
#
# Track frame offsets: 
#        150
#        21818
#        49727
#        62548
#        81238
#        106746
#        122163
#        138620
#        157457
#        179786
#        203824
#
# Disc length: 2850 seconds
#
# Revision: 13
# Processed by: cddbd v1.5.2PL0 Copyright (c) Steve Scherf et al.
# Submitted via: ExactAudioCopyFreeDBPlugin 1.0
#
DISCID=a00b200b
DTITLE=Pink Martini - Sympathique
DYEAR=1999
DGENRE=Latin
TTITLE0=Amado mio
TTITLE1=No Hay Problema
TTITLE2=Sympathique
TTITLE3=Que Sera Sera
TTITLE4=La Soledad
TTITLE5=Donde Estas, Yolanda?
TTITLE6=Andalucia
TTITLE7=Song of the Black Lizard
TTITLE8=Never on Sunday
TTITLE9=Brazil
TTITLE10=Lullaby
EXTD=
EXTT0=
EXTT1=
EXTT2=
EXTT3=
EXTT4=
EXTT5=
EXTT6=
EXTT7=
EXTT8=
EXTT9=
EXTT10=
PLAYORDER=
